<svg xmlns="http://www.w3.org/2000/svg" width="1280" height="640" viewBox="0 0 1280 640" font-family="Helvetica Neue, Helvetica, Arial, sans-serif">
  <defs>
    <linearGradient id="sky" x1="0" y1="0" x2="0" y2="1">
      <stop offset="0" stop-color="#05070d"/><stop offset="0.42" stop-color="#0c1b2e"/>
      <stop offset="0.72" stop-color="#16314a"/><stop offset="0.86" stop-color="#9a6b2a"/><stop offset="1" stop-color="#2a1c0d"/>
    </linearGradient>
    <radialGradient id="sun" cx="0.5" cy="0.30" r="0.55">
      <stop offset="0" stop-color="#ffe9b0" stop-opacity="0.95"/><stop offset="0.25" stop-color="#f6c860" stop-opacity="0.55"/>
      <stop offset="0.6" stop-color="#c98b2a" stop-opacity="0.12"/><stop offset="1" stop-color="#c98b2a" stop-opacity="0"/>
    </radialGradient>
    <linearGradient id="gold" x1="0" y1="0" x2="0" y2="1"><stop offset="0" stop-color="#FFF1C2"/><stop offset="0.5" stop-color="#F2C75B"/><stop offset="1" stop-color="#B8881F"/></linearGradient>
    <linearGradient id="title" x1="0" y1="0" x2="0" y2="1"><stop offset="0" stop-color="#FFFFFF"/><stop offset="0.5" stop-color="#FBE7AE"/><stop offset="0.52" stop-color="#E9C66A"/><stop offset="1" stop-color="#C79A2E"/></linearGradient>
    <radialGradient id="vig" cx="0.5" cy="0.46" r="0.75"><stop offset="0.55" stop-color="#000" stop-opacity="0"/><stop offset="1" stop-color="#000" stop-opacity="0.78"/></radialGradient>
    <linearGradient id="scrim" x1="0" y1="0" x2="0" y2="1"><stop offset="0" stop-color="#05070d" stop-opacity="0"/><stop offset="1" stop-color="#05070d" stop-opacity="0.92"/></linearGradient>
    <filter id="gblur"><feGaussianBlur stdDeviation="7"/></filter>
    <filter id="bblur"><feGaussianBlur stdDeviation="3.2"/></filter>
    <filter id="soft"><feGaussianBlur stdDeviation="1.4"/></filter>
    <filter id="grain"><feTurbulence type="fractalNoise" baseFrequency="0.9" numOctaves="2" stitchTiles="stitch"/><feColorMatrix type="matrix" values="0 0 0 0 0  0 0 0 0 0  0 0 0 0 0  0 0 0 0.5 0"/></filter>
    <radialGradient id="glow" cx="0.5" cy="0.5" r="0.5"><stop offset="0" stop-color="#3B82F6" stop-opacity="0.9"/><stop offset="1" stop-color="#3B82F6" stop-opacity="0"/></radialGradient>
  </defs>
  <rect width="1280" height="640" fill="url(#sky)"/>
  <rect width="1280" height="640" fill="url(#sun)"/>
  <g fill="#ffe6a8" opacity="0.16" filter="url(#gblur)">
    <polygon points="640,150 560,640 700,640"/><polygon points="640,150 360,640 470,640"/><polygon points="640,150 760,640 900,640"/>
    <polygon points="640,150 140,640 280,640"/><polygon points="640,150 1000,640 1180,640"/><polygon points="640,150 620,640 660,640"/>
  </g>
  <g filter="url(#gblur)" opacity="0.5"><ellipse cx="640" cy="430" rx="700" ry="26" fill="#cf9a4e" opacity="0.5"/><ellipse cx="640" cy="470" rx="760" ry="34" fill="#13283c" opacity="0.7"/></g>
  <g fill="#070d16">
    <polygon points="430,372 850,372 640,322"/><rect x="436" y="372" width="408" height="18"/>
    <rect x="452" y="390" width="20" height="120"/><rect x="502" y="390" width="20" height="120"/><rect x="552" y="390" width="20" height="120"/><rect x="602" y="390" width="20" height="120"/>
    <rect x="658" y="390" width="20" height="120"/><rect x="708" y="390" width="20" height="120"/><rect x="758" y="390" width="20" height="120"/><rect x="808" y="390" width="20" height="120"/>
    <rect x="430" y="510" width="420" height="16"/>
  </g>
  <g stroke="#5aa0ff" stroke-width="1.5" opacity="0.85" filter="url(#soft)"><polyline points="430,372 640,322 850,372" fill="none"/><line x1="452" y1="392" x2="452" y2="508"/><line x1="808" y1="392" x2="808" y2="508"/></g>
  <g stroke="#3B82F6" stroke-width="1.3" opacity="0.7" fill="#7fb4ff"><polyline points="472,420 552,420 562,400 678,400 688,430 808,430" fill="none"/><circle cx="472" cy="420" r="2.5"/><circle cx="562" cy="400" r="2.5"/><circle cx="688" cy="430" r="2.5"/><circle cx="808" cy="430" r="2.5"/></g>
  <g transform="translate(640,150)">
    <circle cx="0" cy="0" r="120" fill="url(#glow)" opacity="0.5"/>
    <g stroke="url(#gold)" stroke-width="6" fill="none" stroke-linecap="round" filter="url(#soft)">
      <line x1="0" y1="-66" x2="0" y2="58"/><line x1="-132" y1="-66" x2="132" y2="-66"/><circle cx="0" cy="-76" r="10" fill="url(#gold)" stroke="none"/>
      <line x1="-132" y1="-66" x2="-132" y2="-34"/><line x1="-132" y1="-66" x2="-176" y2="-34"/><line x1="-132" y1="-66" x2="-88" y2="-34"/><path d="M-176 -34 A44 32 0 0 0 -88 -34 Z" fill="#F2C75B" fill-opacity="0.14"/>
      <line x1="132" y1="-66" x2="132" y2="-34"/><line x1="132" y1="-66" x2="88" y2="-34"/><line x1="132" y1="-66" x2="176" y2="-34"/><path d="M88 -34 A44 32 0 0 0 176 -34 Z" fill="#3B82F6" fill-opacity="0.18"/>
      <line x1="-52" y1="58" x2="52" y2="58"/>
    </g>
  </g>
  <g fill="#ffe6a8"><circle cx="300" cy="120" r="2" opacity="0.7"/><circle cx="980" cy="90" r="2.4" opacity="0.6"/><circle cx="420" cy="220" r="1.6" opacity="0.5"/><circle cx="880" cy="240" r="2" opacity="0.6"/><circle cx="200" cy="300" r="1.8" opacity="0.45"/><circle cx="1080" cy="300" r="1.8" opacity="0.5"/><circle cx="520" cy="100" r="1.4" opacity="0.5"/><circle cx="760" cy="130" r="1.6" opacity="0.55"/></g>
  <g fill="#7fb4ff"><circle cx="360" cy="160" r="1.8" opacity="0.6"/><circle cx="940" cy="180" r="1.6" opacity="0.6"/><circle cx="260" cy="220" r="1.5" opacity="0.5"/><circle cx="1020" cy="220" r="1.6" opacity="0.5"/><circle cx="600" cy="60" r="1.4" opacity="0.5"/><circle cx="700" cy="70" r="1.4" opacity="0.5"/></g>
  <g opacity="0.7" filter="url(#bblur)"><rect x="200" y="84" width="880" height="3" fill="#8fc1ff"/><circle cx="640" cy="86" r="10" fill="#cfe4ff" opacity="0.9"/><circle cx="470" cy="86" r="5" fill="#8fc1ff" opacity="0.6"/><circle cx="820" cy="86" r="6" fill="#8fc1ff" opacity="0.6"/></g>
  <rect x="0" y="300" width="1280" height="340" fill="url(#scrim)"/>
  <text x="640" y="408" text-anchor="middle" font-size="178" font-weight="800" letter-spacing="10" fill="#000" opacity="0.55" filter="url(#bblur)">GLAW</text>
  <text x="640" y="404" text-anchor="middle" font-size="178" font-weight="800" letter-spacing="10" fill="url(#title)">GLAW</text>
  <rect x="452" y="428" width="376" height="5" rx="2.5" fill="url(#gold)"/>
  <text x="640" y="476" text-anchor="middle" font-size="29" font-weight="700" fill="#E7EEFB" letter-spacing="9">THE OPEN-SOURCE VIRTUAL LAW FIRM</text>
  <text x="640" y="510" text-anchor="middle" font-size="18" fill="#9fb0c8" letter-spacing="2">One prompt becomes a staffed firm. It builds the company, tries the case, hunts the fraud.</text>
  <text x="640" y="566" text-anchor="middle" font-size="18" fill="#F2C75B" font-weight="700" letter-spacing="3">10 DEPARTMENTS · 59 SKILLS · 20 TOOLS · 8-STAGE PIPELINE · 4 HARD GATES</text>
  <text x="640" y="596" text-anchor="middle" font-size="14" fill="#6f8198" letter-spacing="1">MIT Licensed · Attorney work-product, not legal advice</text>
  <rect width="1280" height="640" fill="url(#vig)"/>
  <rect x="0" y="0" width="1280" height="26" fill="#000"/><rect x="0" y="614" width="1280" height="26" fill="#000"/>
  <rect width="1280" height="640" filter="url(#grain)" opacity="0.06"/>
</svg>
